<mxfile host="app.diagrams.net" agent="Mozilla/5.0 (Windows NT 10.0; Win64; x64) AppleWebKit/537.36 (KHTML, like Gecko) Chrome/131.0.0.0 Safari/537.36" version="25.0.1">
  <diagram name="Page-1" id="YzhgYsG8LCvkdrZASjB_">
    <mxGraphModel dx="2275" dy="742" grid="1" gridSize="10" guides="1" tooltips="1" connect="1" arrows="1" fold="1" page="1" pageScale="1" pageWidth="850" pageHeight="1100" math="0" shadow="0">
      <root>
        <mxCell id="0" />
        <mxCell id="1" parent="0" />
        <mxCell id="ExxF-ikSKuFhEY8TITGe-1" value="Sisfo Penjualan" style="swimlane;whiteSpace=wrap;html=1;" vertex="1" parent="1">
          <mxGeometry x="225" y="130" width="400" height="630" as="geometry" />
        </mxCell>
        <mxCell id="ExxF-ikSKuFhEY8TITGe-6" value="Input Petugas" style="ellipse;whiteSpace=wrap;html=1;" vertex="1" parent="ExxF-ikSKuFhEY8TITGe-1">
          <mxGeometry x="280" y="30" width="85" height="60" as="geometry" />
        </mxCell>
        <mxCell id="ExxF-ikSKuFhEY8TITGe-7" value="Input Barang" style="ellipse;whiteSpace=wrap;html=1;" vertex="1" parent="ExxF-ikSKuFhEY8TITGe-1">
          <mxGeometry x="215" y="120" width="85" height="60" as="geometry" />
        </mxCell>
        <mxCell id="ExxF-ikSKuFhEY8TITGe-8" value="Login" style="ellipse;whiteSpace=wrap;html=1;" vertex="1" parent="ExxF-ikSKuFhEY8TITGe-1">
          <mxGeometry x="195" y="190" width="85" height="60" as="geometry" />
        </mxCell>
        <mxCell id="ExxF-ikSKuFhEY8TITGe-24" value="" style="endArrow=none;dashed=1;html=1;rounded=0;entryX=0;entryY=1;entryDx=0;entryDy=0;exitX=0.5;exitY=0;exitDx=0;exitDy=0;" edge="1" parent="ExxF-ikSKuFhEY8TITGe-1" source="ExxF-ikSKuFhEY8TITGe-7" target="ExxF-ikSKuFhEY8TITGe-6">
          <mxGeometry width="50" height="50" relative="1" as="geometry">
            <mxPoint x="295" y="370" as="sourcePoint" />
            <mxPoint x="345" y="320" as="targetPoint" />
          </mxGeometry>
        </mxCell>
        <mxCell id="ExxF-ikSKuFhEY8TITGe-25" value="&amp;lt;&amp;lt;include&amp;gt;&amp;gt;" style="text;html=1;align=center;verticalAlign=middle;whiteSpace=wrap;rounded=0;" vertex="1" parent="ExxF-ikSKuFhEY8TITGe-1">
          <mxGeometry x="220" y="80" width="60" height="30" as="geometry" />
        </mxCell>
        <mxCell id="ExxF-ikSKuFhEY8TITGe-2" value="&lt;font style=&quot;font-size: 18px;&quot;&gt;SISTEM PENJUALAN FOTOCOPY&lt;/font&gt;" style="text;html=1;align=center;verticalAlign=middle;whiteSpace=wrap;rounded=0;" vertex="1" parent="1">
          <mxGeometry x="315" y="50" width="225" height="30" as="geometry" />
        </mxCell>
        <mxCell id="ExxF-ikSKuFhEY8TITGe-5" value="Petugas" style="shape=umlActor;verticalLabelPosition=bottom;verticalAlign=top;html=1;outlineConnect=0;" vertex="1" parent="1">
          <mxGeometry x="680" y="340" width="30" height="60" as="geometry" />
        </mxCell>
        <mxCell id="ExxF-ikSKuFhEY8TITGe-17" value="" style="endArrow=none;html=1;rounded=0;exitX=0.5;exitY=0.5;exitDx=0;exitDy=0;exitPerimeter=0;entryX=1;entryY=0.5;entryDx=0;entryDy=0;" edge="1" parent="1" source="ExxF-ikSKuFhEY8TITGe-5" target="ExxF-ikSKuFhEY8TITGe-8">
          <mxGeometry width="50" height="50" relative="1" as="geometry">
            <mxPoint x="185" y="460" as="sourcePoint" />
            <mxPoint x="450" y="650" as="targetPoint" />
          </mxGeometry>
        </mxCell>
        <mxCell id="ExxF-ikSKuFhEY8TITGe-18" value="" style="endArrow=none;html=1;rounded=0;exitX=0.5;exitY=0.5;exitDx=0;exitDy=0;exitPerimeter=0;entryX=0.978;entryY=0.612;entryDx=0;entryDy=0;entryPerimeter=0;" edge="1" parent="1" source="ExxF-ikSKuFhEY8TITGe-5" target="ExxF-ikSKuFhEY8TITGe-7">
          <mxGeometry width="50" height="50" relative="1" as="geometry">
            <mxPoint x="685" y="370" as="sourcePoint" />
            <mxPoint x="545" y="370" as="targetPoint" />
          </mxGeometry>
        </mxCell>
        <mxCell id="ExxF-ikSKuFhEY8TITGe-19" value="" style="endArrow=none;html=1;rounded=0;exitX=0.5;exitY=0.5;exitDx=0;exitDy=0;exitPerimeter=0;entryX=1;entryY=1;entryDx=0;entryDy=0;" edge="1" parent="1" source="ExxF-ikSKuFhEY8TITGe-5" target="ExxF-ikSKuFhEY8TITGe-6">
          <mxGeometry width="50" height="50" relative="1" as="geometry">
            <mxPoint x="685" y="370" as="sourcePoint" />
            <mxPoint x="533" y="297" as="targetPoint" />
          </mxGeometry>
        </mxCell>
        <mxCell id="ExxF-ikSKuFhEY8TITGe-9" value="Input Konsumen" style="ellipse;whiteSpace=wrap;html=1;" vertex="1" parent="1">
          <mxGeometry x="340" y="450" width="85" height="60" as="geometry" />
        </mxCell>
        <mxCell id="ExxF-ikSKuFhEY8TITGe-10" value="Kelola transaksi" style="ellipse;whiteSpace=wrap;html=1;" vertex="1" parent="1">
          <mxGeometry x="400" y="510" width="85" height="60" as="geometry" />
        </mxCell>
        <mxCell id="ExxF-ikSKuFhEY8TITGe-11" value="Cetak laporan" style="ellipse;whiteSpace=wrap;html=1;" vertex="1" parent="1">
          <mxGeometry x="425" y="590" width="85" height="60" as="geometry" />
        </mxCell>
        <mxCell id="ExxF-ikSKuFhEY8TITGe-12" value="Menerima laporan" style="ellipse;whiteSpace=wrap;html=1;" vertex="1" parent="1">
          <mxGeometry x="440" y="680" width="85" height="60" as="geometry" />
        </mxCell>
        <mxCell id="ExxF-ikSKuFhEY8TITGe-3" value="Konsumen" style="shape=umlActor;verticalLabelPosition=bottom;verticalAlign=top;html=1;outlineConnect=0;" vertex="1" parent="1">
          <mxGeometry x="160" y="490" width="30" height="60" as="geometry" />
        </mxCell>
        <mxCell id="ExxF-ikSKuFhEY8TITGe-13" value="" style="endArrow=none;html=1;rounded=0;exitX=0.5;exitY=0.5;exitDx=0;exitDy=0;exitPerimeter=0;entryX=0;entryY=0.5;entryDx=0;entryDy=0;" edge="1" parent="1" source="ExxF-ikSKuFhEY8TITGe-3" target="ExxF-ikSKuFhEY8TITGe-9">
          <mxGeometry width="50" height="50" relative="1" as="geometry">
            <mxPoint x="520" y="570" as="sourcePoint" />
            <mxPoint x="570" y="520" as="targetPoint" />
          </mxGeometry>
        </mxCell>
        <mxCell id="ExxF-ikSKuFhEY8TITGe-14" value="" style="endArrow=none;html=1;rounded=0;exitX=0.5;exitY=0.5;exitDx=0;exitDy=0;exitPerimeter=0;entryX=0;entryY=0.5;entryDx=0;entryDy=0;" edge="1" parent="1" source="ExxF-ikSKuFhEY8TITGe-3" target="ExxF-ikSKuFhEY8TITGe-10">
          <mxGeometry width="50" height="50" relative="1" as="geometry">
            <mxPoint x="185" y="530" as="sourcePoint" />
            <mxPoint x="350" y="490" as="targetPoint" />
          </mxGeometry>
        </mxCell>
        <mxCell id="ExxF-ikSKuFhEY8TITGe-20" value="" style="endArrow=none;html=1;rounded=0;exitX=0.5;exitY=0.5;exitDx=0;exitDy=0;exitPerimeter=0;entryX=1;entryY=0.5;entryDx=0;entryDy=0;" edge="1" parent="1" source="ExxF-ikSKuFhEY8TITGe-5" target="ExxF-ikSKuFhEY8TITGe-9">
          <mxGeometry width="50" height="50" relative="1" as="geometry">
            <mxPoint x="695" y="380" as="sourcePoint" />
            <mxPoint x="543" y="307" as="targetPoint" />
          </mxGeometry>
        </mxCell>
        <mxCell id="ExxF-ikSKuFhEY8TITGe-21" value="" style="endArrow=none;html=1;rounded=0;exitX=0.5;exitY=0.5;exitDx=0;exitDy=0;exitPerimeter=0;entryX=1;entryY=0.5;entryDx=0;entryDy=0;" edge="1" parent="1" source="ExxF-ikSKuFhEY8TITGe-5" target="ExxF-ikSKuFhEY8TITGe-10">
          <mxGeometry width="50" height="50" relative="1" as="geometry">
            <mxPoint x="685" y="370" as="sourcePoint" />
            <mxPoint x="435" y="490" as="targetPoint" />
          </mxGeometry>
        </mxCell>
        <mxCell id="ExxF-ikSKuFhEY8TITGe-22" value="" style="endArrow=none;html=1;rounded=0;exitX=0.5;exitY=0.5;exitDx=0;exitDy=0;exitPerimeter=0;entryX=1;entryY=0.5;entryDx=0;entryDy=0;" edge="1" parent="1" source="ExxF-ikSKuFhEY8TITGe-5" target="ExxF-ikSKuFhEY8TITGe-11">
          <mxGeometry width="50" height="50" relative="1" as="geometry">
            <mxPoint x="685" y="370" as="sourcePoint" />
            <mxPoint x="495" y="550" as="targetPoint" />
          </mxGeometry>
        </mxCell>
        <mxCell id="ExxF-ikSKuFhEY8TITGe-23" value="" style="endArrow=none;html=1;rounded=0;exitX=0.5;exitY=0.5;exitDx=0;exitDy=0;exitPerimeter=0;entryX=1;entryY=0.5;entryDx=0;entryDy=0;" edge="1" parent="1" source="ExxF-ikSKuFhEY8TITGe-5" target="ExxF-ikSKuFhEY8TITGe-12">
          <mxGeometry width="50" height="50" relative="1" as="geometry">
            <mxPoint x="685" y="370" as="sourcePoint" />
            <mxPoint x="520" y="630" as="targetPoint" />
          </mxGeometry>
        </mxCell>
        <mxCell id="ExxF-ikSKuFhEY8TITGe-26" value="&lt;font style=&quot;font-size: 24px;&quot;&gt;ACTIVITY DIAGRAM&lt;/font&gt;" style="text;html=1;align=center;verticalAlign=middle;whiteSpace=wrap;rounded=0;" vertex="1" parent="1">
          <mxGeometry x="305" y="1110" width="240" height="50" as="geometry" />
        </mxCell>
        <mxCell id="ExxF-ikSKuFhEY8TITGe-28" value="&lt;font style=&quot;font-size: 24px;&quot;&gt;USECASE DIAGRAM&lt;/font&gt;" style="text;html=1;align=center;verticalAlign=middle;whiteSpace=wrap;rounded=0;rotation=-90;" vertex="1" parent="1">
          <mxGeometry x="70" y="310" width="260" height="50" as="geometry" />
        </mxCell>
        <mxCell id="ExxF-ikSKuFhEY8TITGe-31" value="Petugas" style="swimlane;whiteSpace=wrap;html=1;" vertex="1" parent="1">
          <mxGeometry x="-120" y="1250" width="320" height="590" as="geometry" />
        </mxCell>
        <mxCell id="ExxF-ikSKuFhEY8TITGe-34" value="Mulai" style="ellipse;whiteSpace=wrap;html=1;aspect=fixed;" vertex="1" parent="ExxF-ikSKuFhEY8TITGe-31">
          <mxGeometry x="140" y="40" width="40" height="40" as="geometry" />
        </mxCell>
        <mxCell id="ExxF-ikSKuFhEY8TITGe-35" value="Pilih Transaksi" style="rounded=0;whiteSpace=wrap;html=1;" vertex="1" parent="ExxF-ikSKuFhEY8TITGe-31">
          <mxGeometry x="110" y="110" width="100" height="40" as="geometry" />
        </mxCell>
        <mxCell id="ExxF-ikSKuFhEY8TITGe-51" style="edgeStyle=orthogonalEdgeStyle;rounded=0;orthogonalLoop=1;jettySize=auto;html=1;entryX=0.5;entryY=0;entryDx=0;entryDy=0;" edge="1" parent="ExxF-ikSKuFhEY8TITGe-31" source="ExxF-ikSKuFhEY8TITGe-40" target="ExxF-ikSKuFhEY8TITGe-41">
          <mxGeometry relative="1" as="geometry" />
        </mxCell>
        <mxCell id="ExxF-ikSKuFhEY8TITGe-40" value="Pilih tambah data" style="rounded=0;whiteSpace=wrap;html=1;" vertex="1" parent="ExxF-ikSKuFhEY8TITGe-31">
          <mxGeometry x="110" y="190" width="100" height="40" as="geometry" />
        </mxCell>
        <mxCell id="ExxF-ikSKuFhEY8TITGe-41" value="Input data" style="rounded=0;whiteSpace=wrap;html=1;" vertex="1" parent="ExxF-ikSKuFhEY8TITGe-31">
          <mxGeometry x="110" y="270" width="100" height="40" as="geometry" />
        </mxCell>
        <mxCell id="ExxF-ikSKuFhEY8TITGe-32" value="Sisfo Penjualan" style="swimlane;whiteSpace=wrap;html=1;" vertex="1" parent="1">
          <mxGeometry x="200" y="1250" width="320" height="590" as="geometry" />
        </mxCell>
        <mxCell id="ExxF-ikSKuFhEY8TITGe-49" style="edgeStyle=orthogonalEdgeStyle;rounded=0;orthogonalLoop=1;jettySize=auto;html=1;entryX=0.5;entryY=0;entryDx=0;entryDy=0;" edge="1" parent="ExxF-ikSKuFhEY8TITGe-32" source="ExxF-ikSKuFhEY8TITGe-37" target="ExxF-ikSKuFhEY8TITGe-39">
          <mxGeometry relative="1" as="geometry" />
        </mxCell>
        <mxCell id="ExxF-ikSKuFhEY8TITGe-37" value="Tampilan Transaksi" style="rounded=0;whiteSpace=wrap;html=1;" vertex="1" parent="ExxF-ikSKuFhEY8TITGe-32">
          <mxGeometry x="110" y="110" width="100" height="40" as="geometry" />
        </mxCell>
        <mxCell id="ExxF-ikSKuFhEY8TITGe-39" value="Tampil Pilihan transaksi" style="rounded=0;whiteSpace=wrap;html=1;" vertex="1" parent="ExxF-ikSKuFhEY8TITGe-32">
          <mxGeometry x="110" y="190" width="100" height="40" as="geometry" />
        </mxCell>
        <mxCell id="ExxF-ikSKuFhEY8TITGe-53" style="edgeStyle=orthogonalEdgeStyle;rounded=0;orthogonalLoop=1;jettySize=auto;html=1;entryX=0.5;entryY=0;entryDx=0;entryDy=0;" edge="1" parent="ExxF-ikSKuFhEY8TITGe-32" source="ExxF-ikSKuFhEY8TITGe-42" target="ExxF-ikSKuFhEY8TITGe-43">
          <mxGeometry relative="1" as="geometry" />
        </mxCell>
        <mxCell id="ExxF-ikSKuFhEY8TITGe-42" value="Terima Input" style="rounded=0;whiteSpace=wrap;html=1;" vertex="1" parent="ExxF-ikSKuFhEY8TITGe-32">
          <mxGeometry x="110" y="270" width="100" height="40" as="geometry" />
        </mxCell>
        <mxCell id="ExxF-ikSKuFhEY8TITGe-54" style="edgeStyle=orthogonalEdgeStyle;rounded=0;orthogonalLoop=1;jettySize=auto;html=1;entryX=0.5;entryY=0;entryDx=0;entryDy=0;" edge="1" parent="ExxF-ikSKuFhEY8TITGe-32" source="ExxF-ikSKuFhEY8TITGe-43" target="ExxF-ikSKuFhEY8TITGe-44">
          <mxGeometry relative="1" as="geometry" />
        </mxCell>
        <mxCell id="ExxF-ikSKuFhEY8TITGe-43" value="Validasi" style="ellipse;whiteSpace=wrap;html=1;aspect=fixed;" vertex="1" parent="ExxF-ikSKuFhEY8TITGe-32">
          <mxGeometry x="125" y="340" width="70" height="70" as="geometry" />
        </mxCell>
        <mxCell id="ExxF-ikSKuFhEY8TITGe-55" style="edgeStyle=orthogonalEdgeStyle;rounded=0;orthogonalLoop=1;jettySize=auto;html=1;" edge="1" parent="ExxF-ikSKuFhEY8TITGe-32" source="ExxF-ikSKuFhEY8TITGe-44" target="ExxF-ikSKuFhEY8TITGe-46">
          <mxGeometry relative="1" as="geometry" />
        </mxCell>
        <mxCell id="ExxF-ikSKuFhEY8TITGe-44" value="Cetak Nota" style="rounded=0;whiteSpace=wrap;html=1;" vertex="1" parent="ExxF-ikSKuFhEY8TITGe-32">
          <mxGeometry x="110" y="450" width="100" height="40" as="geometry" />
        </mxCell>
        <mxCell id="ExxF-ikSKuFhEY8TITGe-46" value="End&lt;span style=&quot;color: rgba(0, 0, 0, 0); font-family: monospace; font-size: 0px; text-align: start; text-wrap-mode: nowrap;&quot;&gt;%3CmxGraphModel%3E%3Croot%3E%3CmxCell%20id%3D%220%22%2F%3E%3CmxCell%20id%3D%221%22%20parent%3D%220%22%2F%3E%3CmxCell%20id%3D%222%22%20value%3D%22Mulai%22%20style%3D%22ellipse%3BwhiteSpace%3Dwrap%3Bhtml%3D1%3Baspect%3Dfixed%3B%22%20vertex%3D%221%22%20parent%3D%221%22%3E%3CmxGeometry%20x%3D%2220%22%20y%3D%221290%22%20width%3D%2240%22%20height%3D%2240%22%20as%3D%22geometry%22%2F%3E%3C%2FmxCell%3E%3C%2Froot%3E%3C%2FmxGraphModel%3E&lt;/span&gt;" style="ellipse;whiteSpace=wrap;html=1;aspect=fixed;" vertex="1" parent="ExxF-ikSKuFhEY8TITGe-32">
          <mxGeometry x="140" y="530" width="40" height="40" as="geometry" />
        </mxCell>
        <mxCell id="ExxF-ikSKuFhEY8TITGe-33" value="Basis Data" style="swimlane;whiteSpace=wrap;html=1;" vertex="1" parent="1">
          <mxGeometry x="520" y="1250" width="320" height="590" as="geometry" />
        </mxCell>
        <mxCell id="ExxF-ikSKuFhEY8TITGe-57" style="edgeStyle=orthogonalEdgeStyle;rounded=0;orthogonalLoop=1;jettySize=auto;html=1;entryX=0.5;entryY=0;entryDx=0;entryDy=0;" edge="1" parent="ExxF-ikSKuFhEY8TITGe-33" source="ExxF-ikSKuFhEY8TITGe-45" target="ExxF-ikSKuFhEY8TITGe-47">
          <mxGeometry relative="1" as="geometry" />
        </mxCell>
        <mxCell id="ExxF-ikSKuFhEY8TITGe-45" value="Simpan Data" style="rounded=0;whiteSpace=wrap;html=1;" vertex="1" parent="ExxF-ikSKuFhEY8TITGe-33">
          <mxGeometry x="110" y="450" width="100" height="40" as="geometry" />
        </mxCell>
        <mxCell id="ExxF-ikSKuFhEY8TITGe-47" value="End" style="ellipse;whiteSpace=wrap;html=1;aspect=fixed;" vertex="1" parent="ExxF-ikSKuFhEY8TITGe-33">
          <mxGeometry x="140" y="530" width="40" height="40" as="geometry" />
        </mxCell>
        <mxCell id="ExxF-ikSKuFhEY8TITGe-48" style="edgeStyle=orthogonalEdgeStyle;rounded=0;orthogonalLoop=1;jettySize=auto;html=1;entryX=0;entryY=0.5;entryDx=0;entryDy=0;" edge="1" parent="1" source="ExxF-ikSKuFhEY8TITGe-35" target="ExxF-ikSKuFhEY8TITGe-37">
          <mxGeometry relative="1" as="geometry" />
        </mxCell>
        <mxCell id="ExxF-ikSKuFhEY8TITGe-50" style="edgeStyle=orthogonalEdgeStyle;rounded=0;orthogonalLoop=1;jettySize=auto;html=1;entryX=1;entryY=0.5;entryDx=0;entryDy=0;" edge="1" parent="1" source="ExxF-ikSKuFhEY8TITGe-39" target="ExxF-ikSKuFhEY8TITGe-40">
          <mxGeometry relative="1" as="geometry" />
        </mxCell>
        <mxCell id="ExxF-ikSKuFhEY8TITGe-52" style="edgeStyle=orthogonalEdgeStyle;rounded=0;orthogonalLoop=1;jettySize=auto;html=1;entryX=0;entryY=0.5;entryDx=0;entryDy=0;" edge="1" parent="1" source="ExxF-ikSKuFhEY8TITGe-41" target="ExxF-ikSKuFhEY8TITGe-42">
          <mxGeometry relative="1" as="geometry" />
        </mxCell>
        <mxCell id="ExxF-ikSKuFhEY8TITGe-56" style="edgeStyle=orthogonalEdgeStyle;rounded=0;orthogonalLoop=1;jettySize=auto;html=1;entryX=0;entryY=0.5;entryDx=0;entryDy=0;" edge="1" parent="1" source="ExxF-ikSKuFhEY8TITGe-44" target="ExxF-ikSKuFhEY8TITGe-45">
          <mxGeometry relative="1" as="geometry" />
        </mxCell>
      </root>
    </mxGraphModel>
  </diagram>
</mxfile>
